<svg viewBox="0 0 1400 980" xmlns="http://www.w3.org/2000/svg" class="h-full"><rect/><path class="st0" d="M 57.2 49.7 h 133.4 l -1 94.8 l -131.7 0.7 l -0.7 -95.5 Z" transform="matrix(7.1,0,0,7.1,-176.3,-197.4)" style="fill: rgb(36, 37, 35)"/><path fill="none" d="M 381 868 c -1 9.1 -8.8 41.2 -10 48 h -58 c -5.3 0 -10.9 -1.1 -15.9 1.1 c -7.1 3.1 -10 10.7 -10.1 17.9 v 45 c 0 6.5 0.9 15.7 8 18.4 c 1.9 0.7 400 0.6 400 0.6 c 11.3 0 14.9 -5 15 -16 v -48 c 0 -8.1 -2 -14.4 -10.1 -17.9 c -5.2 -2.2 -11.4 -1.1 -16.9 -1.1 h -56 l -10 -48 c 13.9 0.7 104 1 104 1 h 225 c 7.6 0 6.1 -0.2 12.9 -2.7 c 17.2 -6.3 29.5 -17 36.3 -34.3 c 2.7 -6.8 3.8 -9.6 3.8 -17 V 186 c -0.1 -26.4 -25.1 -54 -52 -54 H 50 c -25.2 0.1 -50.7 25.9 -51 51 v 632 c 0 24.4 16.8 43 39 51 c 7.5 2.7 5.6 3 14 3 h 223 s 80.6 -0.2 106 -1 Z m 583 -136 H 66 l -33 1 V 198 c 0 -19.9 8.9 -30 29 -30 h 874 c 18.7 0 28 10.5 28 29 v 535 Z M 34 768 l 31 1 h 899 v 34 c 0 17.1 -7.9 28.7 -26 29 H 61 c -5 0 -4.6 0.2 -9.3 -1.3 c -4 -1.2 -5.1 -0.8 -8.8 -3.5 C 31.3 818.7 33 801.8 33 789 c 0 -5.3 -0.8 -16.6 1 -21 Z m 441.5 14.7 c -17.2 9.1 -13.3 36.1 7.5 36.1 h 30 c 2.2 0.2 4.9 0.3 7 0 c 14.8 -4.4 17.3 -24.2 6 -33.4 c -4.4 -3.6 -6.6 -3.5 -12 -3.5 l -38.5 0.7 Z M 580 868 l 10 48 H 408 l 9 -48 l 37 1 h 103 l 23 -1 Z m 94 84 v 14 H 323 v -14 h 351 Z" style="fill: rgb(0, 0, 0); stroke-width: 0; fill-opacity: 1" transform="matrix(1,0,0,1,210,0)"/></svg>