<svg viewBox="0 0 1400 980" xmlns="http://www.w3.org/2000/svg" class="h-full"><rect/><path class="st0" d="M57.16 49.67h133.38l-1.01 94.78-131.7.67-.67-95.45Z" transform="matrix(7.05187 0 0 7.05187 -176.33 -197.43)" style="fill:#8a888c"/><path fill="none" d="M382 869c-.98 9.14-8.8 41.23-10 48h-58c-5.31-.02-10.87-1.07-15.91 1.12-7.07 3.06-10 10.67-10.09 17.88v45c.01 6.48.86 15.69 8.02 18.4 1.87.71 399.98.6 399.98.6 11.31-.02 14.94-4.98 15-16v-48c-.02-8.07-2-14.41-10.09-17.88-5.17-2.23-11.38-1.13-16.91-1.12h-56l-10-48c13.89.65 104 1 104 1h225c7.64-.01 6.06-.21 12.91-2.7 17.23-6.27 29.54-17.04 36.29-34.3 2.67-6.84 3.79-9.61 3.8-17V187c-.05-26.38-25.14-53.95-52-54H51c-25.24.05-50.7 25.91-51 51v632c.04 24.41 16.76 43.04 39 51.01 7.52 2.7 5.57 2.98 14 2.99h223s80.58-.16 106-1Zm583-136H67l-33 1V199c.03-19.86 8.88-29.96 29-30h874c18.71.03 27.96 10.46 28 29v535ZM35 769l31 1h899v34c-.03 17.13-7.88 28.7-26 29H62c-4.97-.01-4.58.18-9.28-1.27-3.99-1.24-5.08-.76-8.8-3.49C32.3 819.73 34 802.75 34 790c0-5.28-.76-16.56 1-21Zm441.46 14.72c-17.24 9.11-13.27 36.14 7.54 36.11h30c2.2.17 4.89.26 7 0 14.75-4.42 17.31-24.17 6.02-33.36-4.44-3.62-6.6-3.46-12.02-3.47l-38.54.72ZM581 869l10 48H409l9-48 37 1h103l23-1Zm94 84v14H324v-14h351Z" style="fill:#000;stroke-width:0;fill-opacity:1" transform="matrix(.98 0 0 .98 210 0)"/></svg>